<mxfile host="app.diagrams.net" modified="2023-09-18T03:53:58.899Z" agent="Mozilla/5.0 (Macintosh; Intel Mac OS X 10_15_7) AppleWebKit/537.36 (KHTML, like Gecko) Chrome/115.0.0.0 Safari/537.36" version="21.7.5" etag="4UTtjkEnbVD9bqgMgdgy" type="github">
  <diagram name="第 1 页" id="agrWq2e8TuAbSmvD2mNS">
    <mxGraphModel>
      <root>
        <mxCell id="0" />
        <mxCell id="1" parent="0" />
      </root>
    </mxGraphModel>
  </diagram>
</mxfile>
